<svg width="40" height="40" viewBox="0 0 40 40" fill="none" xmlns="http://www.w3.org/2000/svg">
<path d="M20.4 6.56C27.46 6.56 33.26 11.78 34.24 18.56H38.4L31.4 26.56L24.4 18.56H29.04C28.5926 16.6022 27.4946 14.854 25.9253 13.6007C24.3561 12.3475 22.4083 11.6634 20.4 11.66C17.5 11.66 14.94 13.08 13.32 15.22L9.9 11.32C11.209 9.82312 12.8234 8.62384 14.6345 7.80281C16.4456 6.98177 18.4115 6.55801 20.4 6.56V6.56ZM19.6 33.44C12.56 33.44 6.74001 28.22 5.76001 21.44H1.60001L8.60001 13.44C10.94 16.1 13.26 18.78 15.6 21.44H10.96C11.4074 23.3978 12.5054 25.146 14.0747 26.3993C15.6439 27.6525 17.5917 28.3366 19.6 28.34C22.5 28.34 25.06 26.92 26.68 24.78L30.1 28.68C28.7922 30.1784 27.1782 31.3787 25.3668 32.1999C23.5554 33.0211 21.5888 33.444 19.6 33.44V33.44Z" fill="#008891"/>
</svg>
