<svg width="26" height="26" viewBox="0 0 26 26" fill="none" xmlns="http://www.w3.org/2000/svg">
<path d="M14.0834 4.33332L13 7.51182L11.9167 4.33332C11.8583 4.16118 11.8417 3.97759 11.8684 3.79777C11.8951 3.61795 11.9643 3.44708 12.0702 3.29932C12.1761 3.15156 12.3157 3.03116 12.4774 2.94811C12.6391 2.86505 12.8182 2.82173 13 2.82173C13.1818 2.82173 13.361 2.86505 13.5227 2.94811C13.6844 3.03116 13.824 3.15156 13.9299 3.29932C14.0358 3.44708 14.1049 3.61795 14.1316 3.79777C14.1583 3.97759 14.1418 4.16118 14.0834 4.33332ZM4.33337 11.9167L7.51187 13L4.33337 14.0833C4.16122 14.1417 3.97763 14.1583 3.79781 14.1316C3.61799 14.1049 3.44713 14.0357 3.29937 13.9298C3.15161 13.8239 3.03121 13.6844 2.94815 13.5227C2.8651 13.361 2.82178 13.1818 2.82178 13C2.82178 12.8182 2.8651 12.639 2.94815 12.4773C3.03121 12.3156 3.15161 12.176 3.29937 12.0701C3.44713 11.9642 3.61799 11.8951 3.79781 11.8684C3.97763 11.8417 4.16122 11.8582 4.33337 11.9167ZM11.9167 21.6667L13 18.4882L14.0834 21.6667C14.1418 21.8388 14.1583 22.0224 14.1316 22.2022C14.1049 22.382 14.0358 22.5529 13.9299 22.7007C13.824 22.8484 13.6844 22.9688 13.5227 23.0519C13.361 23.1349 13.1818 23.1783 13 23.1783C12.8182 23.1783 12.6391 23.1349 12.4774 23.0519C12.3157 22.9688 12.1761 22.8484 12.0702 22.7007C11.9643 22.5529 11.8951 22.382 11.8684 22.2022C11.8417 22.0224 11.8583 21.8388 11.9167 21.6667ZM21.6667 14.0812L18.4882 12.9978L21.6667 11.9145C21.8389 11.8561 22.0224 11.8395 22.2023 11.8662C22.3821 11.8929 22.5529 11.9621 22.7007 12.068C22.8485 12.1739 22.9689 12.3135 23.0519 12.4752C23.135 12.6369 23.1783 12.816 23.1783 12.9978C23.1783 13.1796 23.135 13.3588 23.0519 13.5205C22.9689 13.6822 22.8485 13.8218 22.7007 13.9277C22.5529 14.0336 22.3821 14.1027 22.2023 14.1294C22.0224 14.1561 21.8389 14.1396 21.6667 14.0812ZM7.63754 6.10566L9.11845 9.11841L6.1057 7.63749C5.94198 7.55738 5.79975 7.43934 5.69083 7.29319C5.58191 7.14704 5.50945 6.977 5.47948 6.79721C5.44951 6.61742 5.4629 6.43307 5.51852 6.25949C5.57414 6.08592 5.6704 5.92812 5.79928 5.79924C5.92817 5.67035 6.08596 5.5741 6.25954 5.51847C6.43312 5.46285 6.61747 5.44947 6.79726 5.47944C6.97705 5.50941 7.14709 5.58186 7.29324 5.69078C7.43939 5.7997 7.55743 5.94193 7.63754 6.10566V6.10566ZM6.1057 18.3614L9.11845 16.8805L7.63754 19.8932C7.55743 20.057 7.43939 20.1992 7.29324 20.3081C7.14709 20.417 6.97705 20.4895 6.79726 20.5195C6.61747 20.5494 6.43312 20.536 6.25954 20.4804C6.08596 20.4248 5.92817 20.3285 5.79928 20.1997C5.6704 20.0708 5.57414 19.913 5.51852 19.7394C5.4629 19.5658 5.44951 19.3815 5.47948 19.2017C5.50945 19.0219 5.58191 18.8519 5.69083 18.7057C5.79975 18.5596 5.94198 18.4415 6.1057 18.3614V18.3614ZM18.3615 19.8932L16.8805 16.8805L19.8933 18.3614C20.057 18.4415 20.1992 18.5596 20.3082 18.7057C20.4171 18.8519 20.4895 19.0219 20.5195 19.2017C20.5495 19.3815 20.5361 19.5658 20.4805 19.7394C20.4248 19.913 20.3286 20.0708 20.1997 20.1997C20.0708 20.3285 19.913 20.4248 19.7394 20.4804C19.5659 20.536 19.3815 20.5494 19.2017 20.5195C19.0219 20.4895 18.8519 20.417 18.7058 20.3081C18.5596 20.1992 18.4416 20.057 18.3615 19.8932V19.8932ZM19.8922 7.63532L16.8784 9.11733L18.3604 6.10349C18.4405 5.93977 18.5585 5.79753 18.7047 5.68861C18.8508 5.5797 19.0209 5.50724 19.2006 5.47727C19.3804 5.4473 19.5648 5.46068 19.7384 5.51631C19.9119 5.57193 20.0697 5.66819 20.1986 5.79707C20.3275 5.92596 20.4238 6.08375 20.4794 6.25733C20.535 6.43091 20.5484 6.61525 20.5184 6.79505C20.4885 6.97484 20.416 7.14488 20.3071 7.29103C20.1982 7.43718 20.0559 7.55521 19.8922 7.63532V7.63532ZM13 17.875C10.3123 17.875 8.12504 15.6877 8.12504 13C8.12504 10.3122 10.3123 8.12499 13 8.12499C15.6878 8.12499 17.875 10.3122 17.875 13C17.875 15.6877 15.6878 17.875 13 17.875ZM13 10.2917C11.5061 10.2917 10.2917 11.5061 10.2917 13C10.2917 14.4939 11.5061 15.7083 13 15.7083C14.494 15.7083 15.7084 14.4939 15.7084 13C15.7084 11.5061 14.494 10.2917 13 10.2917Z" fill="#008891"/>
</svg>
