<svg width="30" height="30" viewBox="0 0 30 30" fill="none" xmlns="http://www.w3.org/2000/svg">
<path d="M22.0087 13.1184L15.7941 3.22219C15.7039 3.09563 15.5848 2.99246 15.4467 2.92128C15.3085 2.85009 15.1554 2.81295 15 2.81295C14.8446 2.81295 14.6915 2.85009 14.5533 2.92128C14.4152 2.99246 14.2961 3.09563 14.2059 3.22219L7.96313 13.1653C7.09583 14.5643 6.61272 16.1672 6.5625 17.8125C6.5625 20.0503 7.45145 22.1964 9.03379 23.7787C10.6161 25.361 12.7622 26.25 15 26.25C17.2378 26.25 19.3839 25.361 20.9662 23.7787C22.5486 22.1964 23.4375 20.0503 23.4375 17.8125C23.3836 16.1492 22.8907 14.5297 22.0087 13.1184ZM15 24.375C13.2602 24.3728 11.5923 23.6806 10.3621 22.4504C9.13185 21.2202 8.43973 19.5523 8.4375 17.8125C8.48733 16.5015 8.88113 15.2267 9.57938 14.1159L10.4559 12.7191L19.9003 22.1634C19.2869 22.8584 18.5328 23.415 17.688 23.7965C16.8432 24.1779 15.9269 24.3754 15 24.3759V24.375Z" fill="#008891"/>
</svg>
