<svg width="150" height="76" viewBox="0 0 150 76" fill="none" xmlns="http://www.w3.org/2000/svg">
<path d="M58.25 18.9023L65.4043 7.40625H71.3105L60.1309 24L58.584 33H53.3457L55.0156 23.4199L49.707 7.42383L55.1387 7.40625L58.25 18.9023ZM78.5352 13.6289C80.2109 13.6523 81.6523 14.0859 82.8594 14.9297C84.0781 15.7617 84.9688 16.916 85.5312 18.3926C86.1055 19.8574 86.3105 21.4863 86.1465 23.2793C85.877 26.3027 84.8223 28.752 82.9824 30.627C81.1543 32.4902 78.8926 33.3984 76.1973 33.3516C74.5449 33.3281 73.1152 32.9062 71.9082 32.0859C70.7012 31.2539 69.8105 30.1055 69.2363 28.6406C68.6621 27.1758 68.457 25.5586 68.6211 23.7891C68.9258 20.6484 69.9922 18.1523 71.8203 16.3008C73.6484 14.4492 75.8867 13.5586 78.5352 13.6289ZM73.5254 25.5996C73.5488 26.7246 73.8125 27.6152 74.3164 28.2715C74.8203 28.916 75.5293 29.25 76.4434 29.2734C77.9668 29.3203 79.1621 28.623 80.0293 27.1816C80.8965 25.7285 81.3008 23.8242 81.2422 21.4688C81.1953 20.3438 80.9199 19.4473 80.416 18.7793C79.9238 18.0996 79.2148 17.748 78.2891 17.7246C76.8125 17.6777 75.6289 18.375 74.7383 19.8164C73.8594 21.2461 73.4551 23.1738 73.5254 25.5996ZM99.3652 31.0312C97.959 32.6133 96.2129 33.3867 94.127 33.3516C92.2988 33.3281 90.916 32.6719 89.9785 31.3828C89.041 30.0938 88.6777 28.3945 88.8887 26.2852L90.9453 13.9805H95.9023L93.8105 26.3379C93.7637 26.7246 93.7578 27.0879 93.793 27.4277C93.9102 28.5996 94.5605 29.2031 95.7441 29.2383C97.2793 29.2852 98.5508 28.6934 99.5586 27.4629L101.932 13.9805H106.924L103.619 33H98.9961L99.3652 31.0312ZM120.336 18.7441C119.656 18.627 119.1 18.5684 118.666 18.5684C116.896 18.5215 115.496 19.1836 114.465 20.5547L112.268 33H107.311L110.615 13.9805L115.273 13.9629L114.816 16.2832C116.012 14.4902 117.488 13.5938 119.246 13.5938C119.738 13.5938 120.312 13.6758 120.969 13.8398L120.336 18.7441ZM61.8125 56.0781L64.1094 43.9375H67.6133L63.8281 61H60.2891L57.5117 49.5859L54.7344 61H51.1953L47.4102 43.9375H50.9141L53.2227 56.0547L56.0352 43.9375H59.0117L61.8125 56.0781ZM74.7617 61.2344C72.9023 61.2344 71.3867 60.6641 70.2148 59.5234C69.0508 58.3828 68.4688 56.8633 68.4688 54.9648V54.6367C68.4688 53.3633 68.7148 52.2266 69.207 51.2266C69.6992 50.2188 70.3945 49.4453 71.293 48.9062C72.1992 48.3594 73.2305 48.0859 74.3867 48.0859C76.1211 48.0859 77.4844 48.6328 78.4766 49.7266C79.4766 50.8203 79.9766 52.3711 79.9766 54.3789V55.7617H71.9023C72.0117 56.5898 72.3398 57.2539 72.8867 57.7539C73.4414 58.2539 74.1406 58.5039 74.9844 58.5039C76.2891 58.5039 77.3086 58.0312 78.043 57.0859L79.707 58.9492C79.1992 59.668 78.5117 60.2305 77.6445 60.6367C76.7773 61.0352 75.8164 61.2344 74.7617 61.2344ZM74.375 50.8281C73.7031 50.8281 73.1562 51.0547 72.7344 51.5078C72.3203 51.9609 72.0547 52.6094 71.9375 53.4531H76.6484V53.1836C76.6328 52.4336 76.4297 51.8555 76.0391 51.4492C75.6484 51.0352 75.0938 50.8281 74.375 50.8281ZM89.2578 61C89.1016 60.6953 88.9883 60.3164 88.918 59.8633C88.0977 60.7773 87.0312 61.2344 85.7188 61.2344C84.4766 61.2344 83.4453 60.875 82.625 60.1562C81.8125 59.4375 81.4062 58.5312 81.4062 57.4375C81.4062 56.0938 81.9023 55.0625 82.8945 54.3438C83.8945 53.625 85.3359 53.2617 87.2188 53.2539H88.7773V52.5273C88.7773 51.9414 88.625 51.4727 88.3203 51.1211C88.0234 50.7695 87.5508 50.5938 86.9023 50.5938C86.332 50.5938 85.8828 50.7305 85.5547 51.0039C85.2344 51.2773 85.0742 51.6523 85.0742 52.1289H81.6875C81.6875 51.3945 81.9141 50.7148 82.3672 50.0898C82.8203 49.4648 83.4609 48.9766 84.2891 48.625C85.1172 48.2656 86.0469 48.0859 87.0781 48.0859C88.6406 48.0859 89.8789 48.4805 90.793 49.2695C91.7148 50.0508 92.1758 51.1523 92.1758 52.5742V58.0703C92.1836 59.2734 92.3516 60.1836 92.6797 60.8008V61H89.2578ZM86.457 58.6445C86.957 58.6445 87.418 58.5352 87.8398 58.3164C88.2617 58.0898 88.5742 57.7891 88.7773 57.4141V55.2344H87.5117C85.8164 55.2344 84.9141 55.8203 84.8047 56.9922L84.793 57.1914C84.793 57.6133 84.9414 57.9609 85.2383 58.2344C85.5352 58.5078 85.9414 58.6445 86.457 58.6445ZM98.832 45.2031V48.3203H101V50.8047H98.832V57.1328C98.832 57.6016 98.9219 57.9375 99.1016 58.1406C99.2812 58.3438 99.625 58.4453 100.133 58.4453C100.508 58.4453 100.84 58.418 101.129 58.3633V60.9297C100.465 61.1328 99.7812 61.2344 99.0781 61.2344C96.7031 61.2344 95.4922 60.0352 95.4453 57.6367V50.8047H93.5938V48.3203H95.4453V45.2031H98.832ZM106.191 49.7031C107.09 48.625 108.219 48.0859 109.578 48.0859C112.328 48.0859 113.723 49.6836 113.762 52.8789V61H110.375V52.9727C110.375 52.2461 110.219 51.7109 109.906 51.3672C109.594 51.0156 109.074 50.8398 108.348 50.8398C107.355 50.8398 106.637 51.2227 106.191 51.9883V61H102.805V43H106.191V49.7031ZM122.152 61.2344C120.293 61.2344 118.777 60.6641 117.605 59.5234C116.441 58.3828 115.859 56.8633 115.859 54.9648V54.6367C115.859 53.3633 116.105 52.2266 116.598 51.2266C117.09 50.2188 117.785 49.4453 118.684 48.9062C119.59 48.3594 120.621 48.0859 121.777 48.0859C123.512 48.0859 124.875 48.6328 125.867 49.7266C126.867 50.8203 127.367 52.3711 127.367 54.3789V55.7617H119.293C119.402 56.5898 119.73 57.2539 120.277 57.7539C120.832 58.2539 121.531 58.5039 122.375 58.5039C123.68 58.5039 124.699 58.0312 125.434 57.0859L127.098 58.9492C126.59 59.668 125.902 60.2305 125.035 60.6367C124.168 61.0352 123.207 61.2344 122.152 61.2344ZM121.766 50.8281C121.094 50.8281 120.547 51.0547 120.125 51.5078C119.711 51.9609 119.445 52.6094 119.328 53.4531H124.039V53.1836C124.023 52.4336 123.82 51.8555 123.43 51.4492C123.039 51.0352 122.484 50.8281 121.766 50.8281ZM136.426 51.4961C135.965 51.4336 135.559 51.4023 135.207 51.4023C133.926 51.4023 133.086 51.8359 132.688 52.7031V61H129.301V48.3203H132.5L132.594 49.832C133.273 48.668 134.215 48.0859 135.418 48.0859C135.793 48.0859 136.145 48.1367 136.473 48.2383L136.426 51.4961Z" fill="#008891"/>
<path d="M41.19 28.7017L24.6175 2.10005C24.3771 1.75986 24.0594 1.48254 23.6911 1.29119C23.3228 1.09984 22.9144 1 22.5 1C22.0856 1 21.6773 1.09984 21.3089 1.29119C20.9406 1.48254 20.6229 1.75986 20.3825 2.10005L3.735 28.8277C1.42221 32.5883 0.133915 36.897 0 41.3196C0 47.3348 2.37053 53.1036 6.5901 57.3571C10.8097 61.6105 16.5326 64 22.5 64C28.4674 64 34.1903 61.6105 38.4099 57.3571C42.6295 53.1036 45 47.3348 45 41.3196C44.8563 36.8485 43.5418 32.4953 41.19 28.7017V28.7017ZM22.5 58.9599C17.8605 58.9539 13.4128 57.0934 10.1322 53.7865C6.85161 50.4796 5.00595 45.9962 5 41.3196C5.13288 37.7955 6.18302 34.3687 8.045 31.383L10.3825 27.6281L35.5675 53.0151C33.9318 54.8832 31.9208 56.3795 29.668 57.4048C27.4151 58.4301 24.9718 58.961 22.5 58.9624V58.9599Z" fill="#008891"/>
<path d="M136.344 36.0859C136.375 34.2578 137.047 32.6797 138.359 31.3516C139.688 30.0078 141.219 29.3516 142.953 29.3828C144.578 29.4141 145.93 30.0547 147.008 31.3047C148.102 32.5547 148.633 34.0078 148.602 35.6641C148.57 37.4766 147.906 39.0391 146.609 40.3516C145.328 41.6641 143.82 42.3047 142.086 42.2734C140.445 42.2422 139.07 41.625 137.961 40.4219C136.852 39.2031 136.312 37.7578 136.344 36.0859ZM139.695 36.0391C139.602 36.7422 139.758 37.375 140.164 37.9375C140.57 38.5 141.148 38.7812 141.898 38.7812C142.695 38.7812 143.422 38.4922 144.078 37.9141C144.734 37.3359 145.133 36.6016 145.273 35.7109C145.367 34.9453 145.219 34.2812 144.828 33.7188C144.438 33.1406 143.875 32.8516 143.141 32.8516C142.344 32.8516 141.602 33.1641 140.914 33.7891C140.242 34.4141 139.836 35.1641 139.695 36.0391Z" fill="#008891"/>
</svg>
