<svg width="28" height="28" viewBox="0 0 28 28" fill="none" xmlns="http://www.w3.org/2000/svg">
<path d="M4.66667 11.6667C4.35725 11.6667 4.0605 11.5438 3.84171 11.325C3.62292 11.1062 3.5 10.8094 3.5 10.5C3.5 10.1906 3.62292 9.89384 3.84171 9.67504C4.0605 9.45625 4.35725 9.33333 4.66667 9.33333H14C14.6188 9.33333 15.2123 9.0875 15.6499 8.64992C16.0875 8.21233 16.3333 7.61884 16.3333 7C16.3333 6.38116 16.0875 5.78767 15.6499 5.35008C15.2123 4.9125 14.6188 4.66667 14 4.66667C13.3583 4.66667 12.775 4.92333 12.355 5.355C12.2488 5.46831 12.1205 5.55863 11.9781 5.62038C11.8356 5.68212 11.6819 5.71398 11.5267 5.71398C11.3714 5.71398 11.2178 5.68212 11.0753 5.62038C10.9328 5.55863 10.8045 5.46831 10.6983 5.355C10.2433 4.9 10.2433 4.15333 10.6983 3.69833C11.55 2.85833 12.7167 2.33333 14 2.33333C15.2377 2.33333 16.4247 2.825 17.2998 3.70017C18.175 4.57534 18.6667 5.76232 18.6667 7C18.6667 8.23768 18.175 9.42466 17.2998 10.2998C16.4247 11.175 15.2377 11.6667 14 11.6667H4.66667ZM22.1667 14C22.4761 14 22.7728 13.8771 22.9916 13.6583C23.2104 13.4395 23.3333 13.1428 23.3333 12.8333C23.3333 12.5239 23.2104 12.2272 22.9916 12.0084C22.7728 11.7896 22.4761 11.6667 22.1667 11.6667C21.84 11.6667 21.5483 11.795 21.3383 12.005C21.2304 12.1132 21.1022 12.199 20.9611 12.2575C20.8199 12.3161 20.6686 12.3462 20.5158 12.3462C20.363 12.3462 20.2117 12.3161 20.0706 12.2575C19.9295 12.199 19.8013 12.1132 19.6933 12.005C19.25 11.55 19.25 10.815 19.6933 10.36C20.3233 9.73 21.1983 9.33333 22.1667 9.33333C23.0949 9.33333 23.9852 9.70208 24.6415 10.3585C25.2979 11.0148 25.6667 11.9051 25.6667 12.8333C25.6667 13.7616 25.2979 14.6518 24.6415 15.3082C23.9852 15.9646 23.0949 16.3333 22.1667 16.3333H5.83333C5.52391 16.3333 5.22717 16.2104 5.00838 15.9916C4.78958 15.7728 4.66667 15.4761 4.66667 15.1667C4.66667 14.8572 4.78958 14.5605 5.00838 14.3417C5.22717 14.1229 5.52391 14 5.83333 14H22.1667ZM21 21H4.66667C4.35725 21 4.0605 20.8771 3.84171 20.6583C3.62292 20.4395 3.5 20.1428 3.5 19.8333C3.5 19.5239 3.62292 19.2272 3.84171 19.0084C4.0605 18.7896 4.35725 18.6667 4.66667 18.6667H21C21.9283 18.6667 22.8185 19.0354 23.4749 19.6918C24.1313 20.3482 24.5 21.2384 24.5 22.1667C24.5 23.0949 24.1313 23.9852 23.4749 24.6415C22.8185 25.2979 21.9283 25.6667 21 25.6667C20.0317 25.6667 19.1567 25.27 18.5267 24.64C18.0833 24.185 18.0833 23.45 18.5267 22.995C18.6346 22.8868 18.7628 22.801 18.9039 22.7425C19.0451 22.6839 19.1964 22.6538 19.3492 22.6538C19.502 22.6538 19.6533 22.6839 19.7944 22.7425C19.9355 22.801 20.0637 22.8868 20.1717 22.995C20.3817 23.205 20.6733 23.3333 21 23.3333C21.3094 23.3333 21.6062 23.2104 21.825 22.9916C22.0438 22.7728 22.1667 22.4761 22.1667 22.1667C22.1667 21.8572 22.0438 21.5605 21.825 21.3417C21.6062 21.1229 21.3094 21 21 21Z" fill="#008891"/>
</svg>
